<?xml version="1.0" standalone="no"?>
<!DOCTYPE svg PUBLIC "-//W3C//DTD SVG 20010904//EN"
 "http://www.w3.org/TR/2001/REC-SVG-20010904/DTD/svg10.dtd">
<svg version="1.0" xmlns="http://www.w3.org/2000/svg"
 width="1280.000000pt" height="1214.000000pt" viewBox="0 0 1280.000000 1214.000000"
 preserveAspectRatio="xMidYMid meet">
<metadata>
Created by potrace 1.15, written by Peter Selinger 2001-2017
</metadata>
<g transform="translate(0.000000,1214.000000) scale(0.100000,-0.100000)"
fill="#000000" stroke="none">
<path d="M5771 12129 c-477 -50 -951 -275 -1296 -614 -224 -220 -399 -487
-518 -790 -247 -630 -199 -1348 128 -1939 30 -55 53 -101 51 -103 -2 -3 -66 3
-143 11 -1083 121 -2012 27 -2712 -274 -646 -277 -1066 -723 -1215 -1290 -49
-185 -60 -279 -60 -515 1 -235 12 -340 60 -552 180 -805 737 -1690 1604 -2553
257 -256 665 -619 839 -746 2 -2 -15 -95 -37 -206 -116 -571 -187 -1056 -242
-1658 -11 -118 -20 -223 -20 -232 0 -17 105 -18 2056 -18 l2057 0 190 -65
c741 -255 1490 -432 2189 -519 1823 -228 3234 161 3810 1049 124 191 208 405
255 645 23 120 26 160 27 360 0 168 -4 254 -17 340 -134 865 -661 1773 -1567
2694 -682 693 -1450 1285 -2390 1843 -518 307 -1175 636 -1687 844 -73 30
-133 56 -133 59 0 3 21 16 47 30 26 14 89 53 140 87 320 213 574 508 750 869
236 485 296 1029 171 1539 -116 476 -375 902 -728 1197 -452 379 -1046 565
-1609 507z m-1631 -4024 c169 -15 485 -55 583 -74 27 -5 82 -30 130 -59 385
-235 823 -348 1252 -322 123 7 119 8 360 -78 1079 -385 2137 -952 3040 -1631
762 -572 1412 -1238 1818 -1861 301 -463 483 -904 553 -1340 26 -159 24 -451
-4 -601 -89 -479 -366 -855 -824 -1117 -261 -149 -586 -263 -938 -328 -68 -12
-126 -21 -127 -20 -2 2 -12 99 -23 217 -203 2223 -824 4135 -1738 5347 -561
744 -1186 1170 -1862 1268 -170 24 -480 15 -645 -20 -373 -79 -751 -270 -1085
-548 -656 -547 -1225 -1442 -1658 -2604 -85 -228 -190 -547 -258 -786 -32
-115 -62 -208 -65 -208 -14 0 -364 336 -480 462 -562 606 -914 1141 -1113
1690 -146 405 -190 826 -120 1158 22 105 86 294 127 377 88 173 234 357 386
485 417 353 1000 551 1786 608 172 12 699 4 905 -15z m5565 -7468 c-65 -13
-908 -13 -995 0 -48 8 80 10 490 11 408 0 542 -3 505 -11z"/>
</g>
</svg>
