<?xml version="1.0" encoding="iso-8859-1"?>
<!-- Generator: Adobe Illustrator 19.0.0, SVG Export Plug-In . SVG Version: 6.00 Build 0)  -->
<svg version="1.1" id="Capa_1" xmlns="http://www.w3.org/2000/svg" xmlns:xlink="http://www.w3.org/1999/xlink" x="0px" y="0px"
	 viewBox="0 0 512 512" style="enable-background:new 0 0 512 512;" xml:space="preserve">
<g>
	<g>
		<g>
			<rect x="324.861" y="99.143" transform="matrix(-0.9663 0.2573 -0.2573 -0.9663 699.8726 138.6906)" width="32" height="32"/>
			<polygon points="141.872,480 47.248,480 166.704,32 302.112,32 313.024,72.896 343.952,64.656 326.72,0 142.128,0 5.584,512 
				167.264,512 189.664,416 202.416,416 202.416,384 164.272,384 			"/>
			<rect x="341.331" y="160.964" transform="matrix(-0.9663 0.2573 -0.2573 -0.9663 748.1683 256.0127)" width="32" height="32"/>
			<path d="M370.416,240c-75.111,0-136,60.889-136,136s60.889,136,136,136s136-60.889,136-136
				C506.328,300.926,445.49,240.088,370.416,240z M370.416,480c-57.438,0-104-46.562-104-104s46.562-104,104-104s104,46.562,104,104
				C474.345,433.408,427.824,479.929,370.416,480z"/>
			<polygon points="354.416,377.376 333.728,356.688 311.104,379.312 354.416,422.624 429.728,347.312 407.104,324.688 			"/>
			<polygon points="234.416,150.688 254.528,226.144 285.456,217.888 252.944,96 215.888,96 156.144,320 218.416,320 218.416,288 
				197.792,288 			"/>
		</g>
	</g>
</g>
<g>
</g>
<g>
</g>
<g>
</g>
<g>
</g>
<g>
</g>
<g>
</g>
<g>
</g>
<g>
</g>
<g>
</g>
<g>
</g>
<g>
</g>
<g>
</g>
<g>
</g>
<g>
</g>
<g>
</g>
</svg>
