<svg xmlns="http://www.w3.org/2000/svg" viewBox="0 0 48 48" width="48px" height="48px"><radialGradient id="mL163qxhnVut~JikqJgNja" cx="19.38" cy="42.035" r="44.899" gradientUnits="userSpaceOnUse"><stop offset="0" stop-color="#fd5"/><stop offset=".328" stop-color="#ff543f"/><stop offset=".348" stop-color="#fc5245"/><stop offset=".504" stop-color="#e64771"/><stop offset=".643" stop-color="#d53e91"/><stop offset=".761" stop-color="#cc39a4"/><stop offset=".841" stop-color="#c837ab"/></radialGradient><path fill="url(#mL163qxhnVut~JikqJgNja)" d="M34.017,41.99l-20,0.019c-4.4,0.004-8.003-3.592-8.008-7.992l-0.019-20	c-0.004-4.4,3.592-8.003,7.992-8.008l20-0.019c4.4-0.004,8.003,3.592,8.008,7.992l0.019,20	C42.014,38.383,38.417,41.986,34.017,41.99z"/><radialGradient id="mL163qxhnVut~JikqJgNjb" cx="11.786" cy="5.54" r="29.813" gradientTransform="matrix(1 0 0 .6663 0 1.849)" gradientUnits="userSpaceOnUse"><stop offset="0" stop-color="#4168c9"/><stop offset=".999" stop-color="#4168c9" stop-opacity="0"/></radialGradient><path fill="url(#mL163qxhnVut~JikqJgNjb)" d="M34.017,41.99l-20,0.019c-4.4,0.004-8.003-3.592-8.008-7.992l-0.019-20	c-0.004-4.4,3.592-8.003,7.992-8.008l20-0.019c4.4-0.004,8.003,3.592,8.008,7.992l0.019,20	C42.014,38.383,38.417,41.986,34.017,41.99z"/><circle cx="24" cy="24" r="6" fill="none" stroke="#fff" stroke-miterlimit="10" stroke-width="2"/><circle cx="31.5" cy="16.5" r="1.5" fill="#fff"/><path fill="none" stroke="#fff" stroke-miterlimit="10" stroke-width="2" d="M30,36H18c-3.314,0-6-2.686-6-6V18	c0-3.314,2.686-6,6-6h12c3.314,0,6,2.686,6,6v12C36,33.314,33.314,36,30,36z"/></svg>